<svg viewBox="0 0 24 24" xmlns="http://www.w3.org/2000/svg">
  <path d="M19,8H17.78A5,5,0,0,0,13,4H11A5,5,0,0,0,6.22,8H5A1,1,0,0,0,5,10H6.06A4.94,4.94,0,0,0,6,11v1H4a1,1,0,0,0,0,2H6v1a4.94,4.94,0,0,0,.06,1H5a1,1,0,0,0,0,2H6.22A5,5,0,0,0,11,20h2a5,5,0,0,0,4.78-4H19a1,1,0,0,0,0-2H18a4.94,4.94,0,0,0-.06-1V12h2a1,1,0,0,0,0-2H17.94A4.94,4.94,0,0,0,18,11V10h1a1,1,0,0,0,0-2ZM13,18H11a3,3,0,0,1-3-3V9a3,3,0,0,1,3-3h2a3,3,0,0,1,3,3v6A3,3,0,0,1,13,18Z" fill="#6366f1"/>
  <path d="M7,2a1,1,0,0,0-1,1V4A1,1,0,0,0,8,4V3A1,1,0,0,0,7,2Z" fill="#6366f1"/>
  <path d="M17,2a1,1,0,0,0-1,1V4a1,1,0,0,0,2,0V3A1,1,0,0,0,17,2Z" fill="#6366f1"/>
</svg>